<?xml version="1.0" encoding="utf-8"?>
<!-- Generator: Adobe Illustrator 19.0.0, SVG Export Plug-In . SVG Version: 6.00 Build 0)  -->
<svg version="1.1" id="Layer_1" xmlns="http://www.w3.org/2000/svg" xmlns:xlink="http://www.w3.org/1999/xlink" x="0px" y="0px"
	 viewBox="0 0 160 54" style="enable-background:new 0 0 160 54;" xml:space="preserve">
<g id="XMLID_6_">
	<path id="XMLID_7_" d="M33.5,37.8c0,2.8-0.5,5.2-1.4,7.1c-0.9,1.9-2.1,3.5-3.6,4.6c-1.5,1.2-3.2,2-5.1,2.5
		c-1.9,0.5-3.8,0.8-5.7,0.8H0V0h15.9c1.7,0,3.4,0.2,5.3,0.5c1.9,0.3,3.5,1,5.1,2c1.5,1,2.8,2.4,3.8,4.1c1,1.8,1.5,4.1,1.5,6.9
		c0,3.1-0.6,5.6-1.9,7.5c-1.3,1.9-2.8,3.2-4.7,4.1v0.1c1,0.2,2,0.7,3,1.3c1,0.6,1.9,1.5,2.7,2.5c0.8,1,1.5,2.3,2,3.7
		C33.2,34.3,33.5,36,33.5,37.8z M21.1,15.5c0-2.1-0.6-3.5-1.7-4.4c-1.2-0.9-2.5-1.3-4.1-1.3h-4.1v11.5h4.1c1.5,0,2.8-0.5,3.9-1.4
		C20.5,19.1,21.1,17.6,21.1,15.5z M22,36.7c0-1.2-0.2-2.2-0.6-3c-0.4-0.8-0.9-1.5-1.5-2c-0.6-0.5-1.3-0.9-2.1-1.2
		c-0.8-0.2-1.5-0.4-2.3-0.4h-4.4V43h4.5c1.8,0,3.2-0.5,4.5-1.6C21.4,40.4,22,38.8,22,36.7z"/>
	<path id="XMLID_11_" d="M64.1,44.7c-0.5,1.8-1.3,3.4-2.3,4.8c-1,1.4-2.4,2.4-4.1,3.2c-1.7,0.8-3.7,1.2-6,1.2
		c-2.3,0-4.3-0.4-5.9-1.2c-1.6-0.8-2.9-1.9-4-3.2c-1-1.4-1.8-3-2.2-4.8c-0.5-1.8-0.7-3.8-0.7-5.9V14.9h8.7v23.2c0,1.1,0.1,2.1,0.2,3
		c0.1,0.9,0.4,1.7,0.7,2.4c0.3,0.7,0.8,1.2,1.3,1.6c0.5,0.4,1.2,0.6,2.1,0.6c0.9,0,1.6-0.2,2.1-0.6c0.5-0.4,1-0.9,1.3-1.6
		c0.3-0.7,0.5-1.5,0.7-2.4c0.1-0.9,0.2-1.9,0.2-3V14.9h8.6v23.9C64.8,40.9,64.6,42.9,64.1,44.7z"/>
	<path id="XMLID_13_" d="M71,52.9v-38h8.8v30.1H90v7.9H71z"/>
	<path id="XMLID_15_" d="M93.8,52.9v-38h8.8v30.1h10.2v7.9H93.8z"/>
	<path id="XMLID_17_" d="M116.7,52.9v-38h18.5v7.6H125v7.5h9.4V37H125v8.2h10.9v7.7H116.7z"/>
	<path id="XMLID_19_" d="M144.5,22.2h-7v-7.3H160v7.3h-7v30.7L144.5,22.2z"/>
</g>
<g id="XMLID_1_">
	<path id="XMLID_2_" d="M38.8,0.3h4.4c0.4,0,0.8,0,1.2,0.1c0.4,0.1,0.8,0.2,1.2,0.4C46,1,46.4,1.2,46.8,1.5c0.4,0.3,0.7,0.7,1,1.1
		c0.3,0.4,0.5,0.9,0.7,1.5c0.2,0.6,0.3,1.2,0.3,1.9c0,0.7-0.1,1.3-0.3,1.9c-0.2,0.6-0.4,1-0.7,1.5c-0.3,0.4-0.6,0.8-1,1.1
		c-0.4,0.3-0.8,0.5-1.2,0.7c-0.4,0.2-0.8,0.3-1.2,0.4c-0.4,0.1-0.8,0.1-1.2,0.1h-4.4V0.3z M40.1,10.4h2.6c0.7,0,1.3-0.1,1.8-0.3
		c0.6-0.2,1-0.4,1.4-0.8c0.4-0.4,0.7-0.8,1-1.4c0.2-0.6,0.4-1.2,0.4-2c0-0.8-0.1-1.5-0.4-2c-0.2-0.6-0.6-1-1-1.4
		c-0.4-0.4-0.9-0.6-1.4-0.8c-0.6-0.2-1.2-0.3-1.8-0.3h-2.6V10.4z"/>
	<path id="XMLID_21_" d="M50.9,0.3h7.2v1.3h-5.8v3.6h5.4v1.3h-5.4v4.1h6.1v1.3h-7.5V0.3z"/>
	<path id="XMLID_23_" d="M65.9,2.3c-0.2-0.4-0.5-0.6-0.9-0.8c-0.4-0.2-0.8-0.2-1.2-0.2c-0.3,0-0.6,0-0.9,0.1
		c-0.3,0.1-0.6,0.2-0.8,0.3c-0.2,0.2-0.4,0.3-0.6,0.6c-0.1,0.2-0.2,0.5-0.2,0.9c0,0.3,0,0.5,0.1,0.7c0.1,0.2,0.2,0.4,0.4,0.5
		c0.2,0.2,0.4,0.3,0.7,0.5c0.3,0.1,0.7,0.3,1.1,0.4c0.4,0.1,0.9,0.3,1.3,0.5c0.4,0.2,0.8,0.4,1.1,0.6c0.3,0.2,0.6,0.6,0.8,0.9
		c0.2,0.4,0.3,0.8,0.3,1.4c0,0.6-0.1,1.1-0.3,1.5c-0.2,0.4-0.5,0.8-0.9,1c-0.4,0.3-0.8,0.5-1.3,0.6c-0.5,0.1-1,0.2-1.5,0.2
		c-0.3,0-0.7,0-1-0.1c-0.3-0.1-0.7-0.2-1-0.3c-0.3-0.1-0.6-0.3-0.9-0.5c-0.3-0.2-0.5-0.4-0.7-0.7l1.2-0.9c0.2,0.4,0.6,0.7,1,0.9
		c0.4,0.2,0.9,0.3,1.4,0.3c0.3,0,0.6,0,0.9-0.1c0.3-0.1,0.6-0.2,0.8-0.4c0.2-0.2,0.4-0.4,0.6-0.6c0.2-0.2,0.2-0.5,0.2-0.9
		c0-0.4-0.1-0.6-0.2-0.9c-0.1-0.2-0.3-0.4-0.5-0.6c-0.2-0.2-0.6-0.3-0.9-0.4c-0.4-0.1-0.8-0.3-1.3-0.5c-0.4-0.1-0.8-0.3-1.1-0.4
		c-0.3-0.2-0.6-0.4-0.9-0.6s-0.5-0.5-0.6-0.9c-0.1-0.3-0.2-0.7-0.2-1.2c0-0.5,0.1-1,0.3-1.4c0.2-0.4,0.5-0.7,0.9-1
		c0.4-0.3,0.8-0.5,1.2-0.6C62.8,0,63.3,0,63.8,0c0.6,0,1.2,0.1,1.8,0.3s1,0.5,1.4,1L65.9,2.3z"/>
	<path id="XMLID_25_" d="M69.4,0.3h1.4v11.4h-1.4V0.3z"/>
	<path id="XMLID_27_" d="M83.3,10.9c-0.7,0.4-1.3,0.6-2.1,0.8c-0.7,0.2-1.5,0.3-2.2,0.3c-0.9,0-1.7-0.1-2.4-0.4
		c-0.7-0.3-1.4-0.7-1.9-1.2c-0.5-0.5-1-1.2-1.3-1.9S72.9,6.8,72.9,6c0-0.9,0.2-1.7,0.5-2.5c0.3-0.7,0.8-1.4,1.3-1.9
		c0.6-0.5,1.2-0.9,1.9-1.2C77.4,0.1,78.2,0,79.1,0c0.8,0,1.5,0.1,2.2,0.3c0.7,0.2,1.3,0.6,1.9,1.2l-1,1.1c-0.4-0.4-0.9-0.7-1.4-1
		c-0.6-0.2-1.1-0.3-1.7-0.3c-0.7,0-1.3,0.1-1.8,0.4c-0.6,0.2-1,0.6-1.5,1s-0.7,0.9-1,1.5S74.4,5.3,74.4,6c0,0.7,0.1,1.3,0.3,1.9
		c0.2,0.6,0.6,1.1,1,1.5c0.4,0.4,0.9,0.8,1.5,1c0.6,0.2,1.2,0.4,1.9,0.4c0.5,0,0.9-0.1,1.4-0.2c0.5-0.1,1-0.3,1.4-0.5V6.5h-2.6V5.3
		h4V10.9z"/>
	<path id="XMLID_29_" d="M86.1,0.3h1.7l6.6,9.5h0V0.3h1.4v11.4h-1.7l-6.6-9.5h0v9.5h-1.4V0.3z"/>
	<path id="XMLID_31_" d="M108.5,2.3c-0.2-0.4-0.5-0.6-0.9-0.8c-0.4-0.2-0.8-0.2-1.2-0.2c-0.3,0-0.6,0-0.9,0.1
		c-0.3,0.1-0.6,0.2-0.8,0.3c-0.2,0.2-0.4,0.3-0.6,0.6c-0.1,0.2-0.2,0.5-0.2,0.9c0,0.3,0,0.5,0.1,0.7c0.1,0.2,0.2,0.4,0.4,0.5
		c0.2,0.2,0.4,0.3,0.7,0.5c0.3,0.1,0.7,0.3,1.1,0.4c0.4,0.1,0.9,0.3,1.3,0.5c0.4,0.2,0.8,0.4,1.1,0.6c0.3,0.2,0.6,0.6,0.8,0.9
		c0.2,0.4,0.3,0.8,0.3,1.4c0,0.6-0.1,1.1-0.3,1.5c-0.2,0.4-0.5,0.8-0.9,1c-0.4,0.3-0.8,0.5-1.3,0.6c-0.5,0.1-1,0.2-1.5,0.2
		c-0.3,0-0.7,0-1-0.1c-0.3-0.1-0.7-0.2-1-0.3c-0.3-0.1-0.6-0.3-0.9-0.5c-0.3-0.2-0.5-0.4-0.7-0.7l1.2-0.9c0.2,0.4,0.6,0.7,1,0.9
		c0.4,0.2,0.9,0.3,1.4,0.3c0.3,0,0.6,0,0.9-0.1c0.3-0.1,0.6-0.2,0.8-0.4c0.2-0.2,0.4-0.4,0.6-0.6c0.2-0.2,0.2-0.5,0.2-0.9
		c0-0.4-0.1-0.6-0.2-0.9c-0.1-0.2-0.3-0.4-0.5-0.6s-0.6-0.3-0.9-0.4c-0.4-0.1-0.8-0.3-1.3-0.5c-0.4-0.1-0.8-0.3-1.1-0.4
		c-0.3-0.2-0.6-0.4-0.9-0.6c-0.3-0.2-0.5-0.5-0.6-0.9c-0.1-0.3-0.2-0.7-0.2-1.2c0-0.5,0.1-1,0.3-1.4s0.5-0.7,0.9-1
		c0.4-0.3,0.8-0.5,1.2-0.6c0.5-0.1,0.9-0.2,1.4-0.2c0.6,0,1.2,0.1,1.8,0.3c0.5,0.2,1,0.5,1.4,1L108.5,2.3z"/>
	<path id="XMLID_33_" d="M119.7,1.5h-3.8v10.1h-1.4V1.5h-3.8V0.3h8.9V1.5z"/>
	<path id="XMLID_35_" d="M129.8,7.3c0,0.6-0.1,1.2-0.2,1.8c-0.2,0.6-0.4,1-0.7,1.5c-0.3,0.4-0.8,0.8-1.3,1c-0.5,0.3-1.2,0.4-2,0.4
		c-0.8,0-1.4-0.1-2-0.4c-0.5-0.3-1-0.6-1.3-1c-0.3-0.4-0.6-0.9-0.7-1.5c-0.2-0.6-0.2-1.1-0.2-1.8V0.3h1.4v6.9c0,0.5,0,0.9,0.1,1.3
		c0.1,0.4,0.3,0.8,0.5,1.1c0.2,0.3,0.5,0.6,0.9,0.8c0.4,0.2,0.8,0.3,1.4,0.3c0.6,0,1-0.1,1.4-0.3c0.4-0.2,0.7-0.5,0.9-0.8
		c0.2-0.3,0.4-0.7,0.5-1.1c0.1-0.4,0.1-0.9,0.1-1.3V0.3h1.4V7.3z"/>
	<path id="XMLID_37_" d="M132.4,0.3h4.4c0.4,0,0.8,0,1.2,0.1c0.4,0.1,0.8,0.2,1.2,0.4c0.4,0.2,0.8,0.4,1.2,0.7s0.7,0.7,1,1.1
		c0.3,0.4,0.5,0.9,0.7,1.5c0.2,0.6,0.3,1.2,0.3,1.9c0,0.7-0.1,1.3-0.3,1.9c-0.2,0.6-0.4,1-0.7,1.5c-0.3,0.4-0.6,0.8-1,1.1
		s-0.8,0.5-1.2,0.7c-0.4,0.2-0.8,0.3-1.2,0.4c-0.4,0.1-0.8,0.1-1.2,0.1h-4.4V0.3z M133.8,10.4h2.6c0.7,0,1.3-0.1,1.8-0.3
		c0.6-0.2,1-0.4,1.4-0.8c0.4-0.4,0.7-0.8,1-1.4c0.2-0.6,0.4-1.2,0.4-2c0-0.8-0.1-1.5-0.4-2c-0.2-0.6-0.6-1-1-1.4
		c-0.4-0.4-0.9-0.6-1.4-0.8c-0.6-0.2-1.2-0.3-1.8-0.3h-2.6V10.4z"/>
	<path id="XMLID_40_" d="M144.6,0.3h1.4v11.4h-1.4V0.3z"/>
	<path id="XMLID_42_" d="M154,11.9c-0.9,0-1.7-0.2-2.4-0.5s-1.4-0.7-1.9-1.2c-0.5-0.5-0.9-1.2-1.2-1.9c-0.3-0.7-0.4-1.5-0.4-2.4
		c0-0.9,0.1-1.7,0.4-2.4c0.3-0.7,0.7-1.4,1.2-1.9c0.5-0.5,1.2-0.9,1.9-1.2S153.2,0,154,0s1.7,0.2,2.4,0.5c0.7,0.3,1.4,0.7,1.9,1.2
		c0.5,0.5,0.9,1.2,1.2,1.9c0.3,0.7,0.4,1.5,0.4,2.4c0,0.9-0.1,1.7-0.4,2.4c-0.3,0.7-0.7,1.4-1.2,1.9c-0.5,0.5-1.2,0.9-1.9,1.2
		C155.7,11.8,154.9,11.9,154,11.9z M154,10.7c0.7,0,1.3-0.1,1.8-0.4c0.6-0.2,1-0.6,1.4-1c0.4-0.4,0.7-0.9,0.9-1.5
		c0.2-0.6,0.3-1.2,0.3-1.8c0-0.7-0.1-1.3-0.3-1.8c-0.2-0.6-0.5-1.1-0.9-1.5c-0.4-0.4-0.9-0.8-1.4-1c-0.6-0.2-1.2-0.4-1.8-0.4
		s-1.3,0.1-1.8,0.4c-0.6,0.2-1,0.6-1.4,1c-0.4,0.4-0.7,0.9-0.9,1.5c-0.2,0.6-0.3,1.2-0.3,1.8c0,0.7,0.1,1.3,0.3,1.8
		c0.2,0.6,0.5,1.1,0.9,1.5c0.4,0.4,0.9,0.8,1.4,1C152.8,10.6,153.4,10.7,154,10.7z"/>
</g>
</svg>
